HIERARCHY
ROOT Hips
{
	OFFSET 0.00 86.18 0.00
	CHANNELS 6 Xposition Yposition Zposition Yrotation Xrotation Zrotation
	JOINT RightUpLeg
	{
		OFFSET -9.25 0.00 0.00
		CHANNELS 6 Xposition Yposition Zposition Yrotation Xrotation Zrotation
		JOINT RightLeg
		{
			OFFSET 0.00 -42.00 0.00
			CHANNELS 6 Xposition Yposition Zposition Yrotation Xrotation Zrotation
			JOINT RightFoot
			{
				OFFSET 0.00 -42.00 0.00
				CHANNELS 6 Xposition Yposition Zposition Yrotation Xrotation Zrotation
				End Site
				{
					OFFSET 0 -1.14 11.36
				}
			}
		}
	}
	JOINT LeftUpLeg
	{
		OFFSET 9.25 0.00 0.00
		CHANNELS 6 Xposition Yposition Zposition Yrotation Xrotation Zrotation
		JOINT LeftLeg
		{
			OFFSET 0.00 -42.00 0.00
			CHANNELS 6 Xposition Yposition Zposition Yrotation Xrotation Zrotation
			JOINT LeftFoot
			{
				OFFSET 0.00 -42.00 0.00
				CHANNELS 6 Xposition Yposition Zposition Yrotation Xrotation Zrotation
				End Site
				{
					OFFSET 0 -1.14 11.36
				}
			}
		}
	}
	JOINT Spine
	{
		OFFSET 0.00 10.46 0.00
		CHANNELS 6 Xposition Yposition Zposition Yrotation Xrotation Zrotation
		JOINT Spine1
		{
			OFFSET 0.00 9.75 0.00
			CHANNELS 6 Xposition Yposition Zposition Yrotation Xrotation Zrotation
			JOINT Spine2
			{
				OFFSET 0.00 10.15 0.00
				CHANNELS 6 Xposition Yposition Zposition Yrotation Xrotation Zrotation
				JOINT Spine3
				{
					OFFSET 0.00 9.75 0.00
					CHANNELS 6 Xposition Yposition Zposition Yrotation Xrotation Zrotation
			 		JOINT Neck
					{
						OFFSET 0.00 10.42 0.00
						CHANNELS 6 Xposition Yposition Zposition Yrotation Xrotation Zrotation
						JOINT Head
						{
							OFFSET 0.00 9.50 0.00
							CHANNELS 6 Xposition Yposition Zposition Yrotation Xrotation Zrotation
							End Site
							{
								OFFSET 0 16.00 0
							}
						}    
					} 
					JOINT RightShoulder
	 					{
						OFFSET -3.20 6.94 0.00
						CHANNELS 6 Xposition Yposition Zposition Yrotation Xrotation Zrotation
						JOINT RightArm
						{
							OFFSET -16.00 0.00 0.00
							CHANNELS 6 Xposition Yposition Zposition Yrotation Xrotation Zrotation
							JOINT RightForeArm
							{
								OFFSET -26.50 0.00 0.00
								CHANNELS 6 Xposition Yposition Zposition Yrotation Xrotation Zrotation
								JOINT RightHand
								{
									OFFSET -26.00 0.00 0.00
									CHANNELS 6 Xposition Yposition Zposition Yrotation Xrotation Zrotation
									End Site
									{
										OFFSET -17.50 0 0
									}
								}
							}
						}	
					}
					JOINT LeftShoulder
					{
						OFFSET 3.20 6.94 0.00
						CHANNELS 6 Xposition Yposition Zposition Yrotation Xrotation Zrotation
						JOINT LeftArm
						{
							OFFSET 16.00 0.00 0.00
							CHANNELS 6 Xposition Yposition Zposition Yrotation Xrotation Zrotation
							JOINT LeftForeArm
							{
								OFFSET 26.50 0.00 0.00
								CHANNELS 6 Xposition Yposition Zposition Yrotation Xrotation Zrotation
								JOINT LeftHand
								{
									OFFSET 26.00 0.00 0.00
									CHANNELS 6 Xposition Yposition Zposition Yrotation Xrotation Zrotation
									End Site
									{
										OFFSET 17.50 0 0
									}
								}
							}
						}
					}     			
				}
			}
		} 
	} 
}
MOTION
Frames: 16
Frame Time: 0.010
68.20 93.02 -18.86 -141.78 2.08 -0.50 -9.23 0.01 0.09 -29.56 -1.66 -4.06 0.09 -42.00 0.06 13.62 0.36 1.20 -0.27 -42.33 1.46 1.27 -0.29 3.21 9.24 -0.01 -0.06 18.17 -3.86 -0.05 -0.01 -42.00 -0.01 -9.61 4.75 3.31 0.44 -41.72 -0.69 -2.16 -0.82 0.64 0.02 10.46 0.03 -1.12 -1.06 0.78 0.03 9.75 0.02 -0.28 -0.26 0.19 0.03 10.15 -0.01 -0.47 -0.44 0.32 0.03 9.75 -0.02 0.10 -0.61 -0.22 0.08 10.41 0.05 0.10 -0.61 -0.22 0.10 9.49 0.05 2.59 -11.00 -4.27 -3.18 6.95 -0.03 -0.40 2.88 1.96 -15.99 0.01 0.03 3.22 -2.31 80.17 -26.50 0.04 0.03 -0.08 4.31 0.16 -26.01 0.04 -0.01 7.35 2.71 -9.00 3.22 6.93 -0.03 2.42 -0.49 -2.54 16.02 -0.01 -0.01 -1.17 10.41 -81.17 26.50 -0.00 -0.01 -9.51 1.68 -2.47 26.00 -0.02 -0.01 -6.19 13.27 10.86 
68.19 93.02 -18.86 -141.79 2.07 -0.50 -9.23 0.01 0.09 -29.63 -1.66 -4.08 0.09 -42.00 0.06 13.70 0.36 1.22 -0.26 -42.33 1.46 1.27 -0.29 3.21 9.25 -0.01 -0.06 18.17 -3.84 -0.07 -0.00 -42.00 -0.01 -9.63 4.74 3.33 0.44 -41.72 -0.70 -2.14 -0.82 0.63 0.02 10.46 0.03 -1.10 -1.05 0.79 0.03 9.75 0.02 -0.28 -0.26 0.20 0.03 10.15 -0.01 -0.46 -0.43 0.33 0.03 9.75 -0.02 0.10 -0.60 -0.22 0.08 10.41 0.05 0.10 -0.60 -0.22 0.10 9.49 0.06 2.69 -10.80 -4.29 -3.18 6.95 -0.03 -0.44 2.88 1.95 -15.99 0.01 0.03 3.28 -2.30 80.17 -26.50 0.04 0.04 -0.02 4.37 0.16 -26.01 0.04 -0.01 7.34 2.70 -9.00 3.22 6.93 -0.03 2.49 -0.52 -2.49 16.02 -0.01 -0.01 -1.24 10.36 -81.21 26.50 -0.00 -0.01 -9.45 1.73 -2.46 26.00 -0.02 -0.01 -6.23 13.32 10.85 
68.19 93.02 -18.86 -141.80 2.07 -0.49 -9.22 0.01 0.09 -29.68 -1.67 -4.11 0.09 -42.00 0.05 13.75 0.37 1.25 -0.26 -42.33 1.47 1.28 -0.28 3.20 9.24 -0.01 -0.05 18.15 -3.83 -0.07 -0.01 -42.00 -0.00 -9.60 4.75 3.33 0.44 -41.72 -0.70 -2.14 -0.83 0.62 0.02 10.46 0.04 -1.09 -1.06 0.79 0.03 9.75 0.02 -0.27 -0.26 0.19 0.03 10.15 -0.01 -0.46 -0.43 0.33 0.03 9.75 -0.02 0.11 -0.59 -0.22 0.07 10.41 0.06 0.11 -0.59 -0.22 0.09 9.49 0.06 2.78 -10.60 -4.29 -3.18 6.96 -0.03 -0.45 2.90 1.94 -16.00 0.02 0.03 3.33 -2.31 80.18 -26.50 0.03 0.04 0.02 4.39 0.13 -26.01 0.03 -0.01 7.35 2.72 -9.00 3.22 6.93 -0.03 2.58 -0.54 -2.41 16.02 -0.01 -0.01 -1.30 10.33 -81.25 26.50 0.00 -0.01 -9.40 1.80 -2.48 26.00 -0.02 -0.01 -6.22 13.31 10.88 
68.18 93.02 -18.86 -141.79 2.07 -0.49 -9.22 0.01 0.09 -29.74 -1.69 -4.12 0.09 -42.00 0.05 13.80 0.39 1.25 -0.26 -42.33 1.47 1.29 -0.27 3.21 9.25 -0.01 -0.05 18.13 -3.81 -0.07 -0.00 -42.00 0.01 -9.58 4.74 3.33 0.44 -41.72 -0.70 -2.13 -0.83 0.63 0.02 10.46 0.04 -1.07 -1.06 0.80 0.02 9.75 0.02 -0.27 -0.26 0.20 0.03 10.15 -0.01 -0.45 -0.43 0.33 0.03 9.75 -0.02 0.11 -0.58 -0.22 0.07 10.41 0.07 0.11 -0.58 -0.22 0.09 9.49 0.07 2.83 -10.41 -4.32 -3.18 6.96 -0.03 -0.51 2.92 1.90 -16.00 0.02 0.02 3.38 -2.34 80.19 -26.50 0.03 0.04 0.04 4.44 0.13 -26.01 0.02 -0.01 7.34 2.70 -9.01 3.22 6.93 -0.03 2.66 -0.56 -2.36 16.02 -0.01 -0.02 -1.40 10.28 -81.29 26.50 0.00 -0.01 -9.34 1.85 -2.52 26.00 -0.02 -0.01 -6.20 13.29 10.92 
68.17 93.03 -18.86 -141.78 2.08 -0.50 -9.22 0.01 0.08 -29.80 -1.71 -4.11 0.09 -42.00 0.05 13.86 0.40 1.26 -0.27 -42.33 1.48 1.30 -0.28 3.20 9.25 -0.01 -0.04 18.12 -3.79 -0.07 -0.00 -42.00 0.01 -9.56 4.70 3.35 0.43 -41.72 -0.71 -2.15 -0.82 0.62 0.02 10.46 0.03 -1.05 -1.06 0.82 0.03 9.75 0.02 -0.26 -0.26 0.20 0.03 10.15 -0.01 -0.44 -0.43 0.34 0.03 9.75 -0.02 0.11 -0.57 -0.22 0.07 10.41 0.07 0.12 -0.57 -0.22 0.09 9.49 0.07 2.88 -10.22 -4.30 -3.18 6.96 -0.04 -0.55 2.96 1.87 -16.00 0.02 0.02 3.44 -2.39 80.21 -26.50 0.03 0.04 0.06 4.44 0.13 -26.01 0.02 -0.01 7.35 2.67 -9.03 3.22 6.93 -0.04 2.75 -0.58 -2.29 16.02 -0.01 -0.02 -1.54 10.20 -81.33 26.50 0.01 -0.02 -9.24 1.91 -2.55 26.00 -0.01 -0.01 -6.22 13.29 10.93 
68.17 93.03 -18.86 -141.78 2.07 -0.50 -9.22 0.01 0.07 -29.84 -1.71 -4.10 0.09 -42.00 0.04 13.90 0.41 1.25 -0.27 -42.32 1.48 1.30 -0.26 3.20 9.25 -0.01 -0.03 18.14 -3.76 -0.06 -0.00 -42.00 0.02 -9.58 4.66 3.35 0.43 -41.72 -0.71 -2.16 -0.80 0.61 0.02 10.46 0.03 -1.04 -1.05 0.83 0.03 9.75 0.02 -0.26 -0.26 0.21 0.03 10.15 -0.01 -0.44 -0.43 0.34 0.04 9.75 -0.02 0.12 -0.56 -0.22 0.06 10.41 0.08 0.12 -0.56 -0.22 0.09 9.49 0.08 2.93 -10.07 -4.26 -3.18 6.96 -0.04 -0.60 3.00 1.85 -16.01 0.02 0.02 3.51 -2.45 80.22 -26.50 0.04 0.04 0.07 4.43 0.13 -26.01 0.02 -0.00 7.33 2.65 -9.05 3.22 6.93 -0.03 2.90 -0.57 -2.18 16.03 -0.01 -0.02 -1.74 10.10 -81.41 26.50 0.01 -0.02 -9.16 2.00 -2.58 26.00 -0.01 -0.02 -6.22 13.26 10.98 
68.17 93.03 -18.86 -141.78 2.07 -0.51 -9.22 0.01 0.07 -29.86 -1.70 -4.09 0.09 -42.00 0.04 13.93 0.42 1.25 -0.27 -42.32 1.49 1.29 -0.25 3.20 9.25 -0.01 -0.02 18.19 -3.74 -0.05 -0.00 -42.00 0.02 -9.62 4.63 3.33 0.42 -41.72 -0.71 -2.17 -0.79 0.61 0.02 10.46 0.03 -1.04 -1.05 0.84 0.03 9.75 0.01 -0.26 -0.26 0.21 0.03 10.15 -0.01 -0.44 -0.43 0.35 0.04 9.75 -0.02 0.12 -0.55 -0.22 0.06 10.42 0.08 0.13 -0.55 -0.22 0.09 9.49 0.08 2.99 -9.88 -4.22 -3.18 6.96 -0.04 -0.63 3.05 1.81 -16.01 0.02 0.02 3.58 -2.50 80.24 -26.50 0.03 0.04 0.09 4.37 0.14 -26.01 0.02 0.00 7.32 2.66 -9.08 3.22 6.93 -0.03 3.06 -0.56 -2.09 16.03 -0.01 -0.02 -1.92 10.00 -81.47 26.50 0.01 -0.03 -9.08 2.14 -2.60 26.00 -0.00 -0.02 -6.18 13.22 10.99 
68.17 93.03 -18.86 -141.79 2.07 -0.50 -9.22 0.01 0.07 -29.88 -1.70 -4.10 0.09 -42.00 0.04 13.99 0.41 1.26 -0.27 -42.32 1.51 1.28 -0.25 3.20 9.25 -0.01 -0.03 18.24 -3.74 -0.04 -0.00 -42.00 0.02 -9.64 4.61 3.32 0.42 -41.72 -0.71 -2.18 -0.78 0.61 0.02 10.46 0.03 -1.03 -1.05 0.85 0.03 9.75 0.01 -0.26 -0.26 0.21 0.03 10.15 -0.01 -0.43 -0.43 0.35 0.04 9.75 -0.02 0.13 -0.54 -0.22 0.06 10.42 0.08 0.13 -0.54 -0.22 0.08 9.49 0.08 3.02 -9.71 -4.23 -3.18 6.96 -0.04 -0.67 3.06 1.75 -16.00 0.02 0.02 3.68 -2.53 80.26 -26.50 0.03 0.04 0.14 4.34 0.16 -26.01 0.02 -0.00 7.29 2.63 -9.12 3.22 6.93 -0.03 3.18 -0.59 -2.01 16.03 -0.01 -0.03 -2.03 9.94 -81.51 26.50 0.02 -0.04 -9.02 2.36 -2.61 26.00 0.00 -0.03 -6.18 13.24 10.95 
68.17 93.03 -18.86 -141.80 2.07 -0.50 -9.23 0.01 0.07 -29.88 -1.69 -4.10 0.08 -42.00 0.04 14.01 0.40 1.26 -0.27 -42.32 1.51 1.25 -0.25 3.19 9.25 -0.01 -0.03 18.30 -3.73 -0.03 -0.00 -42.00 0.01 -9.67 4.59 3.31 0.41 -41.72 -0.72 -2.20 -0.76 0.60 0.02 10.46 0.04 -1.03 -1.04 0.86 0.03 9.75 0.01 -0.26 -0.26 0.21 0.03 10.15 -0.01 -0.43 -0.42 0.36 0.04 9.75 -0.02 0.13 -0.53 -0.22 0.06 10.42 0.08 0.13 -0.53 -0.22 0.09 9.49 0.09 3.08 -9.53 -4.21 -3.18 6.95 -0.04 -0.66 3.07 1.65 -16.00 0.01 0.01 3.70 -2.58 80.32 -26.50 0.03 0.03 0.17 4.32 0.17 -26.01 0.01 -0.00 7.29 2.62 -9.15 3.22 6.93 -0.03 3.30 -0.66 -1.93 16.03 -0.01 -0.03 -2.15 9.90 -81.56 26.50 0.01 -0.04 -8.96 2.59 -2.62 26.00 0.00 -0.03 -6.14 13.25 10.91 
68.17 93.03 -18.86 -141.79 2.09 -0.50 -9.23 0.01 0.07 -29.91 -1.70 -4.09 0.07 -42.00 0.04 14.03 0.40 1.26 -0.26 -42.32 1.53 1.24 -0.24 3.18 9.24 -0.01 -0.03 18.34 -3.75 -0.03 -0.00 -42.00 0.00 -9.71 4.56 3.31 0.40 -41.72 -0.72 -2.22 -0.73 0.58 0.02 10.46 0.03 -1.03 -1.03 0.88 0.03 9.75 0.01 -0.26 -0.26 0.22 0.03 10.15 -0.01 -0.43 -0.42 0.37 0.04 9.75 -0.02 0.13 -0.52 -0.22 0.06 10.42 0.09 0.13 -0.52 -0.22 0.09 9.49 0.09 3.11 -9.35 -4.23 -3.18 6.96 -0.04 -0.75 3.07 1.59 -16.00 0.02 0.02 3.82 -2.60 80.33 -26.50 0.03 0.03 0.23 4.29 0.18 -26.01 0.01 -0.01 7.29 2.63 -9.16 3.22 6.93 -0.04 3.38 -0.73 -1.87 16.03 -0.01 -0.03 -2.22 9.90 -81.58 26.50 0.01 -0.04 -8.92 2.85 -2.63 26.00 0.00 -0.04 -6.14 13.29 10.86 
68.16 93.03 -18.86 -141.79 2.08 -0.49 -9.23 0.01 0.07 -29.95 -1.70 -4.10 0.07 -42.00 0.04 14.07 0.39 1.26 -0.26 -42.32 1.53 1.24 -0.23 3.17 9.24 -0.01 -0.03 18.37 -3.76 -0.03 -0.00 -42.00 -0.00 -9.74 4.55 3.31 0.39 -41.72 -0.73 -2.22 -0.70 0.56 0.02 10.46 0.04 -1.03 -1.03 0.89 0.03 9.75 0.01 -0.26 -0.26 0.22 0.03 10.15 -0.01 -0.43 -0.42 0.37 0.04 9.75 -0.02 0.14 -0.51 -0.22 0.06 10.42 0.09 0.14 -0.51 -0.22 0.09 9.49 0.09 3.17 -9.14 -4.25 -3.18 6.95 -0.04 -0.79 3.09 1.51 -16.00 0.01 0.02 3.90 -2.62 80.37 -26.50 0.02 0.03 0.30 4.26 0.19 -26.01 0.01 -0.01 7.28 2.66 -9.18 3.22 6.93 -0.04 3.49 -0.76 -1.80 16.03 -0.01 -0.02 -2.31 9.90 -81.60 26.50 0.01 -0.04 -8.92 3.09 -2.64 26.00 0.01 -0.04 -6.14 13.36 10.79 
68.16 93.04 -18.87 -141.78 2.08 -0.49 -9.23 0.01 0.06 -29.99 -1.70 -4.10 0.07 -42.00 0.04 14.09 0.40 1.26 -0.26 -42.32 1.54 1.26 -0.24 3.18 9.24 -0.01 -0.04 18.36 -3.78 -0.04 0.00 -42.00 -0.01 -9.73 4.58 3.31 0.39 -41.72 -0.74 -2.23 -0.69 0.55 0.02 10.46 0.04 -1.01 -1.02 0.90 0.03 9.75 0.01 -0.25 -0.25 0.22 0.03 10.15 -0.01 -0.43 -0.42 0.37 0.04 9.75 -0.02 0.14 -0.50 -0.22 0.06 10.42 0.09 0.14 -0.50 -0.22 0.09 9.49 0.09 3.22 -8.94 -4.29 -3.18 6.95 -0.04 -0.90 3.12 1.46 -15.99 0.01 0.03 4.00 -2.65 80.36 -26.50 0.02 0.03 0.40 4.29 0.21 -26.01 0.01 -0.02 7.26 2.66 -9.19 3.22 6.93 -0.04 3.57 -0.79 -1.74 16.03 -0.01 -0.02 -2.42 9.88 -81.65 26.50 0.01 -0.03 -8.91 3.28 -2.64 26.00 0.01 -0.04 -6.16 13.43 10.74 
68.16 93.04 -18.88 -141.77 2.09 -0.47 -9.23 0.01 0.06 -30.04 -1.73 -4.08 0.07 -42.00 0.03 14.13 0.44 1.24 -0.27 -42.32 1.54 1.25 -0.25 3.17 9.24 -0.01 -0.04 18.37 -3.79 -0.04 -0.00 -42.00 -0.02 -9.73 4.57 3.32 0.38 -41.73 -0.75 -2.25 -0.67 0.53 0.03 10.46 0.04 -1.00 -1.01 0.92 0.03 9.75 0.02 -0.25 -0.25 0.23 0.03 10.15 -0.01 -0.42 -0.42 0.38 0.04 9.75 -0.02 0.14 -0.49 -0.23 0.06 10.42 0.10 0.14 -0.49 -0.23 0.09 9.49 0.10 3.23 -8.75 -4.35 -3.18 6.95 -0.04 -0.96 3.14 1.39 -15.99 0.01 0.02 4.06 -2.68 80.38 -26.50 0.01 0.03 0.48 4.35 0.24 -26.01 0.01 -0.02 7.28 2.67 -9.20 3.22 6.92 -0.03 3.67 -0.82 -1.66 16.03 -0.02 -0.01 -2.51 9.88 -81.69 26.50 0.01 -0.02 -8.90 3.46 -2.67 26.00 0.01 -0.04 -6.19 13.48 10.72 
68.16 93.04 -18.88 -141.74 2.09 -0.48 -9.22 0.01 0.05 -30.03 -1.75 -4.11 0.08 -42.00 0.03 14.12 0.46 1.28 -0.27 -42.32 1.54 1.25 -0.26 3.16 9.24 -0.01 -0.05 18.33 -3.81 -0.05 0.00 -42.00 -0.02 -9.71 4.59 3.32 0.39 -41.73 -0.75 -2.26 -0.68 0.54 0.03 10.46 0.04 -1.00 -1.01 0.93 0.03 9.75 0.02 -0.25 -0.25 0.23 0.03 10.15 -0.01 -0.42 -0.41 0.39 0.04 9.75 -0.02 0.14 -0.48 -0.23 0.07 10.42 0.10 0.15 -0.48 -0.23 0.09 9.49 0.10 3.27 -8.56 -4.39 -3.18 6.95 -0.04 -1.04 3.18 1.34 -15.99 0.01 0.02 4.14 -2.74 80.38 -26.50 0.01 0.03 0.55 4.39 0.25 -26.01 0.01 -0.02 7.27 2.70 -9.19 3.22 6.92 -0.03 3.77 -0.85 -1.59 16.02 -0.02 -0.00 -2.60 9.88 -81.70 26.50 0.00 -0.01 -8.90 3.60 -2.73 26.00 0.00 -0.03 -6.20 13.49 10.71 
68.16 93.04 -18.89 -141.73 2.11 -0.48 -9.21 0.01 0.06 -30.05 -1.75 -4.12 0.08 -42.00 0.03 14.14 0.47 1.31 -0.27 -42.32 1.55 1.23 -0.28 3.15 9.24 -0.01 -0.06 18.29 -3.85 -0.06 0.01 -42.00 -0.03 -9.67 4.60 3.33 0.39 -41.73 -0.76 -2.27 -0.65 0.52 0.03 10.46 0.04 -1.00 -1.01 0.94 0.03 9.75 0.02 -0.25 -0.25 0.23 0.03 10.15 -0.01 -0.42 -0.42 0.39 0.04 9.75 -0.02 0.15 -0.47 -0.23 0.07 10.42 0.10 0.15 -0.47 -0.23 0.09 9.49 0.10 3.32 -8.37 -4.40 -3.18 6.95 -0.04 -1.10 3.24 1.28 -15.99 0.01 0.02 4.20 -2.82 80.39 -26.50 0.01 0.03 0.62 4.44 0.26 -26.01 0.01 -0.02 7.26 2.73 -9.19 3.22 6.93 -0.03 3.87 -0.87 -1.52 16.02 -0.02 -0.00 -2.69 9.84 -81.72 26.50 0.00 -0.01 -8.90 3.75 -2.78 26.00 0.00 -0.03 -6.20 13.45 10.72 
68.16 93.04 -18.90 -141.71 2.10 -0.47 -9.21 0.01 0.06 -30.07 -1.75 -4.12 0.08 -42.00 0.03 14.15 0.49 1.30 -0.27 -42.32 1.55 1.21 -0.30 3.15 9.25 -0.01 -0.06 18.28 -3.85 -0.08 0.02 -42.00 -0.03 -9.68 4.61 3.34 0.40 -41.73 -0.76 -2.27 -0.65 0.53 0.03 10.46 0.04 -1.00 -1.02 0.95 0.03 9.75 0.02 -0.25 -0.25 0.24 0.03 10.15 -0.01 -0.42 -0.42 0.39 0.04 9.75 -0.02 0.15 -0.46 -0.23 0.07 10.42 0.11 0.15 -0.46 -0.23 0.09 9.49 0.10 3.38 -8.15 -4.42 -3.18 6.96 -0.04 -1.18 3.33 1.24 -15.99 0.01 0.02 4.31 -2.93 80.43 -26.50 0.01 0.02 0.64 4.49 0.24 -26.01 0.01 -0.03 7.24 2.75 -9.18 3.22 6.93 -0.03 3.99 -0.86 -1.44 16.03 -0.01 0.00 -2.79 9.81 -81.76 26.50 0.01 -0.00 -8.87 3.86 -2.81 26.00 0.00 -0.03 -6.23 13.45 10.72 
